<?xml version="1.0" encoding="UTF-8" standalone="no"?>
<!-- Created with Inkscape (http://www.inkscape.org/) -->

<svg
   width="512"
   height="512"
   viewBox="0 0 135.46666 135.46667"
   version="1.1"
   id="svg5"
   xml:space="preserve"
   inkscape:version="1.2.2 (b0a8486541, 2022-12-01)"
   sodipodi:docname="workcafe-favicon-3.svg"
   xmlns:inkscape="http://www.inkscape.org/namespaces/inkscape"
   xmlns:sodipodi="http://sodipodi.sourceforge.net/DTD/sodipodi-0.dtd"
   xmlns:xlink="http://www.w3.org/1999/xlink"
   xmlns="http://www.w3.org/2000/svg"
   xmlns:svg="http://www.w3.org/2000/svg"><sodipodi:namedview
     id="namedview7"
     pagecolor="#ffffff"
     bordercolor="#000000"
     borderopacity="0.25"
     inkscape:showpageshadow="2"
     inkscape:pageopacity="0.0"
     inkscape:pagecheckerboard="0"
     inkscape:deskcolor="#d1d1d1"
     inkscape:document-units="mm"
     showgrid="false"
     inkscape:zoom="2.3904828"
     inkscape:cx="308.09676"
     inkscape:cy="253.71444"
     inkscape:window-width="2560"
     inkscape:window-height="1563"
     inkscape:window-x="0"
     inkscape:window-y="0"
     inkscape:window-maximized="1"
     inkscape:current-layer="layer1" /><defs
     id="defs2"><linearGradient
       inkscape:collect="always"
       id="linearGradient5375"><stop
         style="stop-color:#000000;stop-opacity:1;"
         offset="0"
         id="stop5371" /><stop
         style="stop-color:#000000;stop-opacity:0;"
         offset="1"
         id="stop5373" /></linearGradient><linearGradient
       inkscape:collect="always"
       xlink:href="#linearGradient5375"
       id="linearGradient5377"
       x1="-43.53355"
       y1="73.874619"
       x2="178.3852"
       y2="73.874619"
       gradientUnits="userSpaceOnUse" /></defs><g
     inkscape:label="Layer 1"
     inkscape:groupmode="layer"
     id="layer1"><image
       width="221.91875"
       height="221.91875"
       preserveAspectRatio="none"
       xlink:href="workcafe-5.png"
       id="image5003"
       x="-43.53355"
       y="-37.084755"
       style="fill-opacity:1;fill:url(#linearGradient5377)" /><path
       style="fill:#784421;stroke-width:0.176969"
       d="m 64.244547,134.26491 c -0.62858,-0.31613 -1.45143,-1.23351 -4.325237,-4.82212 C 31.471299,93.918909 22.161038,68.376721 31.149625,50.514752 34.512438,43.832229 42.404164,38.101463 49.105468,37.475685 c 3.55786,-0.332237 3.213343,3.250312 -0.435085,4.524336 -20.074503,7.009976 -8.785232,21.851805 16.631818,21.865591 26.014092,0.0141 36.570149,-15.182012 15.484761,-22.291305 -4.917801,-1.658119 -3.651142,-5.385384 1.415749,-4.165981 10.363167,2.494009 18.157709,10.657789 19.644979,20.575577 l 0.1209,0.806252 2.68184,0.08964 c 23.23594,0.776657 17.17893,33.886653 -6.220349,34.002872 l -3.239185,0.01609 -1.458035,2.8315 c -4.75712,9.238313 -12.028506,20.095333 -21.836904,32.605003 -5.094253,6.49723 -5.656502,6.93296 -7.65141,5.92965 z M 102.57005,86.087212 c 12.05094,-3.031951 13.75662,-20.136474 2.0192,-20.248606 -2.33298,-0.02229 -2.30039,-0.04516 -2.30155,1.615345 -0.003,3.66948 -1.46845,10.678647 -3.467136,16.578095 -0.428535,1.26489 -0.779154,2.323998 -0.779154,2.353574 0,0.217615 3.35678,-0.0036 4.52864,-0.298408 z M 57.116988,48.641421 c -0.05701,-0.057 0.134179,-0.662521 0.424854,-1.345596 2.167831,-5.094329 1.715977,-8.823119 -1.698539,-14.016675 -5.253408,-7.99055 -3.996923,-15.928223 3.264229,-20.621332 1.775488,-1.147554 1.850505,-1.068174 1.072817,1.13518 -1.815688,5.144227 -1.431441,8.811432 1.490758,14.227659 3.695193,6.84895 3.946866,11.378053 0.891016,16.034737 -1.519033,2.314793 -4.883085,5.14808 -5.445135,4.586027 z M 70.641882,35.552731 C 65.193007,30.507907 64.719333,24.362756 69.22282,17.142753 c 1.966487,-3.152676 2.186323,-3.567588 2.773924,-5.235403 0.941481,-2.6722484 1.089724,-6.0062715 0.377485,-8.4897051 -0.435589,-1.5188038 0.06169,-1.3882717 1.943258,0.5100964 4.960666,5.0049597 5.016349,10.7276407 0.177077,18.1989867 -3.100347,4.786621 -3.748578,8.269059 -2.394113,12.861694 0.545524,1.849734 0.536308,1.722771 0.125071,1.722771 -0.182815,0 -0.895454,-0.521307 -1.58364,-1.158462 z"
       id="path5476" /></g></svg>
